
<svg xmlns="http://www.w3.org/2000/svg" width="50%" style="margin-left: 25%" viewBox="0 0 1200 2280"
     preserveAspectRatio="xMidYMid meet">
  <g id="layer101" fill="#1d1109" stroke="none">
    <path d="M0 1140 l0 -1140 600 0 600 0 0 1140 0 1140 -600 0 -600 0 0 -1140z"/>
  </g>
  <g id="layer102" fill="#643b22" stroke="none">
    <path
      d="M0 1615 c0 -540 2 -665 13 -665 7 0 29 -16 48 -36 18 -20 43 -40 54 -46 19 -11 19 -10 2 9 -11 13 -17 35 -16 64 l0 44 16 -40 c8 -22 24 -58 33 -80 63 -140 62 -136 48 -152 -20 -24 -15 -200 6 -241 9 -18 21 -32 27 -32 6 0 6 7 -1 20 -9 16 -8 18 5 14 17 -7 56 36 65 70 10 35 26 28 76 -35 58 -73 109 -109 186 -133 31 -10 62 -23 68 -31 9 -10 18 -9 53 6 69 32 71 34 90 72 14 27 25 37 43 37 27 0 28 -3 14 -31 -11 -20 3 -28 15 -9 4 6 12 4 22 -5 14 -14 17 -14 32 -1 9 8 36 19 61 25 24 5 50 18 57 27 22 30 16 118 -13 187 -32 77 -41 87 -58 65 -14 -19 -78 -29 -86 -13 -3 6 13 11 35 13 61 5 66 14 43 75 -11 29 -24 60 -29 69 -5 10 -9 19 -9 21 0 6 256 0 278 -7 22 -7 22 -7 22 103 l0 110 -35 7 c-22 4 -53 0 -84 -10 -68 -22 -78 -21 -112 16 -27 31 -28 33 -10 40 26 9 36 63 21 117 -6 24 -10 44 -8 45 94 55 121 81 146 137 25 55 29 58 55 53 l27 -6 0 396 0 396 -600 0 -600 0 0 -665z m611 -355 c-11 -35 -17 -68 -14 -73 4 -6 -1 -8 -11 -4 -10 4 -30 7 -44 7 l-27 1 25 14 c15 7 38 40 55 74 36 74 42 66 16 -19z m34 -110 c3 -5 4 -10 1 -10 -3 0 -8 5 -11 10 -3 6 -4 10 -1 10 3 0 8 -4 11 -10z m-135 -194 c0 -3 -5 -8 -12 -12 -7 -4 -8 -3 -4 4 7 12 16 16 16 8z m164 -17 c-30 -12 -37 -10 -24 5 6 8 19 12 27 9 14 -6 14 -8 -3 -14z m-24 -49 c0 -5 -8 -10 -17 -10 -15 0 -16 2 -3 10 19 12 20 12 20 0z m413 3 c-7 -2 -21 -2 -30 0 -10 3 -4 5 12 5 17 0 24 -2 18 -5z m-153 -113 c0 -5 -9 -19 -20 -30 -21 -21 -90 -29 -90 -10 0 14 46 31 65 24 8 -4 17 1 21 10 7 18 24 22 24 6z m-234 -125 c-6 -17 -87 -55 -117 -55 -12 0 -16 5 -13 15 4 8 11 15 17 15 6 0 19 7 29 16 13 13 21 14 31 5 11 -8 18 -6 32 9 20 22 31 20 21 -5z m50 -30 c16 -15 9 -20 -22 -16 -7 1 -14 -5 -18 -14 -3 -8 -16 -15 -28 -15 l-23 1 25 19 c14 11 30 24 35 29 13 13 14 13 31 -4z m-447 -64 c9 -6 11 -16 7 -27 -7 -18 -8 -18 -22 0 -23 32 -16 46 15 27z"/>
    <path d="M1013 1294 c15 -48 17 -91 8 -116 -11 -31 -7 -38 20 -31 24 7 26 64 4 116 -16 39 -41 63 -32 31z"/>
    <path d="M950 845 c0 -9 5 -15 11 -13 6 2 11 8 11 13 0 5 -5 11 -11 13 -6 2 -11 -4 -11 -13z"/>
    <path d="M1015 840 c-3 -5 -4 -10 -1 -10 2 0 12 -3 20 -6 12 -5 15 -2 10 10 -7 18 -20 21 -29 6z"/>
    <path d="M1082 838 c2 -6 10 -14 16 -16 7 -2 10 2 6 12 -7 18 -28 22 -22 4z"/>
    <path d="M1137 843 c-8 -7 11 -33 23 -33 5 0 6 9 3 20 -5 20 -15 25 -26 13z"/>
    <path d="M1190 830 c0 -7 3 -10 7 -7 3 4 3 10 0 14 -4 3 -7 0 -7 -7z"/>
    <path d="M20 810 c37 -12 132 -12 125 0 -3 6 -39 10 -78 9 -51 -1 -65 -3 -47 -9z"/>
    <path
      d="M959 781 c10 -10 26 -32 37 -49 14 -24 21 -29 31 -20 18 15 16 29 -3 26 -10 -2 -19 3 -22 11 -4 11 13 13 97 8 92 -5 101 -4 101 12 0 23 -42 31 -167 31 -91 0 -93 0 -74 -19z"/>
    <path
      d="M1070 731 c0 -5 7 -12 16 -15 12 -5 15 -14 10 -40 -5 -26 -3 -35 10 -40 13 -5 14 -9 4 -20 -9 -12 -8 -20 5 -40 23 -34 70 -36 79 -3 9 35 7 38 -13 28 -30 -17 -34 14 -6 41 33 31 31 38 -11 38 -44 0 -42 21 4 35 42 12 41 25 -3 25 -25 0 -33 -4 -29 -14 9 -23 -12 -27 -31 -6 -19 21 -35 26 -35 11z"/>
    <path d="M1040 531 c0 -11 4 -22 9 -25 4 -3 6 6 3 19 -5 30 -12 33 -12 6z"/>
    <path d="M1156 444 c-9 -33 -3 -39 23 -22 26 16 28 48 2 48 -12 0 -21 -9 -25 -26z"/>
    <path d="M261 437 c-26 -26 1 -37 34 -14 17 13 17 14 -3 19 -11 3 -25 1 -31 -5z"/>
    <path d="M1092 419 c2 -7 10 -15 17 -17 8 -3 12 1 9 9 -2 7 -10 15 -17 17 -8 3 -12 -1 -9 -9z"/>
    <path
      d="M0 191 l0 -191 205 0 205 0 -6 57 c-3 32 -12 71 -20 87 -8 16 -11 33 -7 39 3 6 1 7 -6 3 -6 -4 -21 4 -34 20 -12 15 -40 45 -62 67 -39 38 -39 39 -12 33 16 -4 27 -2 27 4 0 5 -4 10 -10 10 -5 0 -10 7 -10 15 0 11 -7 14 -25 9 -20 -5 -25 -2 -25 12 0 17 -11 19 -110 22 l-110 3 0 -190z"/>
    <path
      d="M1173 353 c-7 -2 -13 -19 -13 -36 0 -29 25 -167 35 -192 2 -5 4 45 4 113 1 67 -2 122 -6 121 -5 0 -14 -3 -20 -6z"/>
    <path
      d="M1073 309 c-6 -21 -18 -25 -28 -9 -10 17 -22 11 -29 -12 -9 -36 -138 -109 -202 -115 -30 -3 -51 -10 -48 -15 4 -5 15 -7 26 -5 41 11 51 -6 11 -20 -68 -24 -110 -25 -150 -3 -21 11 -47 20 -57 20 -20 0 -20 0 0 -14 30 -22 15 -25 -70 -10 -43 8 -82 12 -86 9 -7 -5 12 -104 25 -124 3 -6 19 -11 34 -11 25 0 29 5 37 42 7 36 13 43 34 45 l25 3 -23 -10 c-25 -10 -21 -30 5 -30 11 0 14 -7 11 -25 -5 -24 -4 -25 54 -25 40 0 64 5 74 15 9 8 22 15 30 15 8 0 14 -7 14 -15 0 -9 9 -15 25 -15 18 0 26 7 31 24 3 14 14 32 23 40 19 17 19 18 22 -39 1 -15 8 -25 16 -25 11 0 13 7 7 32 -9 38 -9 71 1 96 6 16 7 16 21 -2 8 -11 14 -35 14 -53 0 -34 29 -73 54 -73 15 0 26 49 26 116 0 33 5 45 25 58 29 19 28 24 25 -91 l-1 -83 64 0 64 0 -24 88 c-13 48 -28 101 -33 118 -13 39 -13 81 0 89 20 12 10 33 -16 33 -18 0 -28 -7 -31 -19z m-43 -99 c-14 -10 -27 -16 -30 -13 -6 6 30 33 44 33 6 0 0 -9 -14 -20z m80 0 c0 -5 -4 -10 -10 -10 -5 0 -10 5 -10 10 0 6 5 10 10 10 6 0 10 -4 10 -10z"/>
    <path d="M595 270 c3 -5 11 -10 16 -10 6 0 7 5 4 10 -3 6 -11 10 -16 10 -6 0 -7 -4 -4 -10z"/>
    <path d="M530 260 c0 -16 38 -32 46 -19 7 12 -12 29 -33 29 -7 0 -13 -4 -13 -10z"/>
  </g>
  <g id="layer103" fill="#9f633f" stroke="none">
    <path
      d="M0 1621 l0 -659 27 -17 c16 -9 38 -29 50 -44 l23 -26 0 57 c0 57 15 128 44 203 8 22 15 34 15 26 1 -21 110 100 116 130 9 38 29 52 78 53 30 1 51 -6 74 -23 18 -13 51 -27 75 -31 24 -4 51 -11 60 -15 13 -5 23 6 47 52 32 63 41 50 20 -32 -6 -23 -9 -51 -6 -61 3 -17 5 -16 15 6 6 14 11 18 11 10 0 -8 -3 -21 -8 -29 -16 -24 11 -71 54 -92 22 -11 51 -29 65 -40 l25 -20 -28 12 c-15 7 -30 9 -33 6 -7 -6 -4 -13 21 -57 13 -22 12 -27 -5 -45 -13 -14 -16 -25 -10 -35 16 -24 12 -30 -20 -30 -20 0 -30 -5 -30 -15 0 -12 -78 -60 -86 -52 -1 1 6 27 16 57 15 46 23 57 48 64 17 6 33 18 35 28 3 10 3 18 0 18 -2 0 -42 -17 -89 -37 -82 -37 -101 -52 -66 -54 10 0 7 -4 -11 -11 -15 -5 -35 -6 -45 -2 -9 4 -23 8 -31 8 -26 2 -24 26 2 26 14 0 38 7 54 15 15 8 54 26 85 40 31 14 60 30 63 35 3 6 17 10 31 10 l25 0 -22 33 c-31 45 -70 76 -95 77 -12 0 -39 -7 -60 -16 -118 -47 -134 -63 -134 -136 0 -41 -5 -53 -34 -84 -40 -42 -51 -99 -31 -156 13 -40 9 -53 -15 -37 -20 12 -33 11 -25 -1 4 -6 8 -30 9 -53 4 -65 74 -165 166 -237 50 -40 152 -80 157 -63 2 6 12 9 22 6 12 -3 26 5 39 22 12 15 40 40 63 57 34 25 45 28 63 19 76 -37 91 -40 147 -22 l54 18 3 60 c2 47 -3 73 -22 117 l-25 57 -30 -16 c-39 -20 -80 -19 -111 2 -43 29 -55 63 -22 63 10 0 23 5 30 12 8 8 15 8 27 -2 12 -10 15 -10 15 3 0 8 -6 18 -12 21 -10 5 -10 7 -1 12 7 3 9 13 6 22 -6 16 -5 15 14 -1 11 -9 22 -17 26 -17 7 0 -7 50 -22 78 -15 27 -3 29 129 19 126 -9 180 3 180 39 0 22 -1 22 -27 8 -60 -31 -99 -5 -52 34 56 45 74 64 56 58 -27 -9 -67 4 -67 20 0 8 5 14 12 14 6 0 9 2 7 5 -3 2 -29 -2 -59 -10 -43 -12 -60 -13 -77 -3 -13 6 -23 15 -23 19 0 5 -9 17 -20 27 l-21 19 20 6 c23 6 42 45 36 73 -16 81 -13 76 -45 59 -56 -29 -30 -6 48 41 104 64 108 68 134 135 24 62 28 65 59 49 19 -11 19 -3 19 385 l0 395 -134 0 -133 0 -16 -52 c-9 -29 -15 -39 -13 -23 2 17 7 40 11 53 l7 22 -461 0 -461 0 0 -659z m949 492 c6 -20 9 -39 7 -41 -6 -5 -22 28 -30 61 -10 43 11 24 23 -20z m-341 -643 c-2 -17 -5 -15 -14 15 -10 32 -10 35 3 22 8 -8 13 -24 11 -37z m237 30 c3 -5 1 -10 -5 -10 -7 0 -10 -7 -6 -15 3 -8 2 -15 -3 -15 -5 0 -11 11 -13 25 -5 25 14 36 27 15z m-715 -175 c0 -13 -4 -14 -20 -5 -11 6 -20 13 -20 15 0 3 9 5 20 5 11 0 20 -7 20 -15z m501 -235 c24 -13 25 -30 2 -30 -10 0 -36 -11 -58 -25 -51 -31 -57 -31 -49 3 12 51 60 75 105 52z m246 -12 c-3 -8 -6 -5 -6 6 -1 11 2 17 5 13 3 -3 4 -12 1 -19z m-7 -35 c0 -5 -4 -14 -9 -22 -9 -14 -51 -7 -51 10 0 6 8 5 20 -1 16 -9 22 -8 26 5 6 16 14 20 14 8z m97 -20 c-4 -3 -10 -3 -14 0 -3 4 0 7 7 7 7 0 10 -3 7 -7z m29 -9 c-4 -9 -2 -13 5 -8 7 4 10 2 8 -5 -3 -7 -8 -12 -12 -12 -4 1 -14 1 -22 1 -13 0 -13 3 -3 20 15 24 33 27 24 4z m51 -13 c2 -18 -33 -44 -53 -40 -26 5 -46 -2 -41 -15 4 -10 0 -12 -14 -9 -16 4 -17 8 -7 20 9 11 9 19 0 34 -10 16 -9 19 3 19 8 0 15 -8 15 -19 0 -15 7 -18 37 -17 26 1 38 6 39 16 2 25 4 30 12 30 4 0 8 -8 9 -19z m-2 -61 c-3 -5 -11 -10 -16 -10 -6 0 -7 5 -4 10 3 6 11 10 16 10 6 0 7 -4 4 -10z m-458 -7 c-4 -3 -10 -3 -14 0 -3 4 0 7 7 7 7 0 10 -3 7 -7z m156 -242 c21 -1 24 -48 5 -74 -26 -35 -216 -87 -247 -68 -15 10 1 56 23 64 9 4 16 13 16 20 0 8 7 20 15 27 13 11 14 10 9 -5 -6 -15 -4 -16 15 -6 12 7 30 11 39 9 10 -1 27 7 38 18 12 12 32 20 45 19 13 -1 32 -3 42 -4z"/>
    <path d="M620 610 c-8 -5 -31 -16 -50 -24 l-35 -14 35 -1 c23 -1 45 7 65 24 29 24 18 35 -15 15z"/>
    <path d="M1025 1219 c0 -56 3 -69 15 -66 19 4 18 74 -2 111 -12 23 -13 19 -13 -45z"/>
    <path d="M1126 971 c-4 -7 -5 -15 -2 -18 9 -9 19 4 14 18 -4 11 -6 11 -12 0z"/>
    <path d="M1100 696 c0 -9 5 -16 10 -16 6 0 10 4 10 9 0 6 -4 13 -10 16 -5 3 -10 -1 -10 -9z"/>
    <path d="M197 693 c-9 -8 -9 -76 -1 -125 7 -41 34 -61 34 -25 -1 12 2 37 6 54 12 64 -12 124 -39 96z"/>
    <path d="M1161 580 l-23 -20 26 0 c16 0 25 4 21 10 -3 6 -1 10 4 10 6 0 11 5 11 10 0 15 -12 12 -39 -10z"/>
    <path d="M1170 440 c-8 -5 -12 -11 -9 -14 3 -3 14 1 25 9 21 16 8 20 -16 5z"/>
    <path d="M33 373 c-15 -3 -23 -12 -23 -24 0 -17 6 -20 38 -17 29 2 37 7 37 23 0 21 -14 26 -52 18z"/>
    <path d="M113 363 c9 -2 23 -2 30 0 6 3 -1 5 -18 5 -16 0 -22 -2 -12 -5z"/>
    <path
      d="M94 326 c-3 -9 -13 -16 -21 -16 -9 0 -13 -6 -10 -14 4 -10 -4 -18 -24 -25 -16 -5 -29 -14 -30 -18 -6 -58 -4 -63 17 -63 12 0 31 -3 41 -7 13 -6 8 -9 -22 -13 l-40 -5 -3 -82 -3 -83 49 0 c41 0 51 3 55 20 4 17 0 20 -36 21 -30 2 -34 3 -14 6 23 4 27 9 27 39 0 33 1 34 39 34 22 0 42 -4 46 -10 3 -5 12 -7 20 -3 20 7 19 -2 -1 -22 -22 -22 -14 -27 34 -19 26 4 42 12 44 23 3 10 6 5 10 -11 4 -23 2 -28 -13 -28 -11 0 -19 -5 -19 -11 0 -8 14 -10 43 -6 23 3 35 2 27 -2 -8 -5 -34 -11 -57 -14 -38 -4 -43 -3 -43 15 0 16 -6 19 -42 16 -37 -3 -43 -6 -44 -25 -1 -23 0 -23 142 -23 126 0 143 2 137 16 -3 8 -17 20 -31 25 -22 9 -24 14 -20 53 4 35 2 45 -14 55 -17 10 -20 9 -25 -9 -5 -19 -10 -21 -42 -15 -36 7 -53 21 -48 40 2 6 27 14 55 18 54 9 62 16 37 37 -8 7 -15 18 -15 25 0 13 -31 27 -63 29 -21 1 -37 24 -30 43 4 9 -5 13 -28 13 -19 0 -44 3 -56 6 -16 4 -25 1 -29 -10z m112 -81 c59 6 64 5 64 -12 0 -15 -8 -20 -32 -20 -63 -2 -98 -14 -98 -34 0 -21 -5 -22 -35 -9 -18 8 -18 9 5 10 l25 2 -25 7 c-19 5 -26 14 -28 40 -2 21 0 31 7 27 6 -4 18 1 28 11 17 18 18 17 21 -5 3 -23 5 -24 68 -17z m-151 -105 c-3 -5 -12 -10 -18 -10 -7 0 -6 4 3 10 19 12 23 12 15 0z"/>
    <path d="M1170 270 c0 -7 3 -10 7 -7 3 4 3 10 0 14 -4 3 -7 0 -7 -7z"/>
    <path d="M1050 200 c0 -7 3 -10 7 -7 3 4 3 10 0 14 -4 3 -7 0 -7 -7z"/>
    <path d="M1191 164 c0 -11 3 -14 6 -6 3 7 2 16 -1 19 -3 4 -6 -2 -5 -13z"/>
    <path d="M927 153 c-13 -12 -7 -33 8 -33 8 0 15 9 15 20 0 20 -11 26 -23 13z"/>
    <path d="M445 120 c3 -5 8 -10 11 -10 2 0 4 5 4 10 0 6 -5 10 -11 10 -5 0 -7 -4 -4 -10z"/>
    <path d="M1061 93 c-1 -24 4 -43 9 -43 12 0 12 37 0 65 -7 15 -9 10 -9 -22z"/>
    <path d="M754 98 c-4 -7 -3 -8 4 -4 7 4 12 9 12 12 0 8 -9 4 -16 -8z"/>
    <path d="M136 85 c4 -8 10 -15 15 -15 4 0 6 7 3 15 -4 8 -10 15 -15 15 -4 0 -6 -7 -3 -15z"/>
    <path d="M648 93 c7 -3 16 -2 19 1 4 3 -2 6 -13 5 -11 0 -14 -3 -6 -6z"/>
    <path
      d="M770 54 c-19 -8 -48 -13 -65 -11 -31 4 -115 -21 -115 -35 0 -4 27 -8 60 -8 46 0 58 3 54 14 -4 10 8 15 41 19 26 2 54 12 63 21 20 20 8 20 -38 0z"/>
    <path
      d="M460 43 c0 -11 5 -24 12 -31 14 -14 62 -17 54 -3 -3 5 -15 7 -26 4 -15 -4 -20 0 -20 15 0 12 -4 24 -10 27 -5 3 -10 -2 -10 -12z"/>
    <path
      d="M930 47 c0 -16 32 -47 48 -47 7 0 12 5 12 10 0 6 -4 10 -10 10 -5 0 -10 9 -10 20 0 13 -7 20 -20 20 -11 0 -20 -6 -20 -13z"/>
    <path
      d="M1136 45 c5 -12 -3 -15 -40 -15 -34 0 -46 -4 -46 -15 0 -12 14 -15 64 -15 l64 0 -11 30 c-6 17 -17 30 -24 30 -7 0 -10 -7 -7 -15z"/>
    <path d="M783 22 c-13 -2 -23 -8 -23 -13 0 -13 37 -11 45 2 9 14 5 16 -22 11z"/>
    <path d="M866 15 c-3 -9 0 -15 9 -15 9 0 12 6 9 15 -4 8 -7 15 -9 15 -2 0 -5 -7 -9 -15z"/>
  </g>
  <g id="layer104" fill="#c18e62" stroke="none">
    <path
      d="M0 1831 l0 -449 52 -7 c34 -5 53 -4 56 3 10 30 105 152 120 154 47 5 162 2 162 -4 0 -16 -48 -37 -98 -44 l-52 -7 -29 -61 c-16 -33 -34 -73 -40 -88 -13 -34 -16 -34 -83 -3 -93 43 -88 53 -88 -170 0 -144 3 -195 12 -195 6 0 22 -10 35 -22 19 -17 23 -19 17 -5 -3 10 -1 17 5 17 6 0 11 -8 12 -17 1 -10 5 2 10 27 11 56 66 259 88 325 14 42 27 58 96 112 84 65 95 71 95 50 0 -13 97 -67 120 -67 8 0 30 -11 50 -25 66 -46 95 -6 65 87 -10 29 -22 59 -28 66 -15 19 -2 25 16 7 9 -9 19 -32 22 -53 11 -67 14 -69 40 -37 l24 30 1 -75 c0 -41 -4 -91 -10 -110 -7 -23 -6 -36 1 -41 6 -3 10 -9 9 -12 -1 -4 -5 -20 -10 -37 -15 -52 0 -46 254 102 63 37 124 73 136 80 23 14 80 116 80 143 0 18 1 18 34 5 l25 -9 1 389 0 390 -135 0 -135 0 0 -53 c0 -30 3 -57 6 -60 10 -10 43 -111 39 -116 -11 -10 -36 25 -46 63 -6 22 -17 51 -25 63 -12 19 -12 27 1 62 l14 41 -249 0 c-228 0 -249 -1 -253 -17 -4 -17 -5 -17 -6 0 -1 16 -18 17 -206 17 l-205 0 0 -449z m397 132 c-4 -3 -7 0 -7 7 0 7 3 10 7 7 3 -4 3 -10 0 -14z m-10 -55 c-3 -8 -6 -5 -6 6 -1 11 2 17 5 13 3 -3 4 -12 1 -19z m-17 -73 c-7 -45 -7 -46 -9 -13 -1 32 8 74 14 66 1 -2 -1 -25 -5 -53z m36 -149 l4 -31 -13 35 c-8 19 -17 49 -20 65 -6 30 -6 30 9 -4 8 -18 17 -47 20 -65z m209 -51 c64 -16 130 -44 122 -51 -3 -3 -16 0 -29 7 -16 9 -59 13 -136 12 -94 -2 -114 0 -119 13 -3 9 0 20 7 24 19 12 98 9 155 -5z m-270 -45 c-3 -5 -12 -10 -18 -10 -7 0 -6 4 3 10 19 12 23 12 15 0z m499 -83 c21 -16 12 -47 -15 -47 -14 0 -19 7 -19 30 0 33 7 37 34 17z"/>
    <path d="M1035 1243 c3 -12 2 -38 -4 -58 -7 -27 -7 -35 2 -32 16 5 21 72 7 94 -10 16 -10 15 -5 -4z"/>
    <path
      d="M970 1225 c-3 -5 -22 -19 -43 -29 -30 -16 -43 -17 -71 -9 -44 14 -62 3 -46 -26 10 -19 17 -21 53 -16 23 3 57 5 74 5 26 0 34 4 39 24 6 26 1 68 -6 51z"/>
    <path
      d="M854 1113 c-5 -17 -12 -21 -33 -19 -14 2 -18 1 -8 -1 22 -6 22 -23 0 -23 -12 0 -14 -3 -6 -11 16 -16 50 9 56 40 6 32 -2 43 -9 14z"/>
    <path d="M872 1028 c-17 -30 -18 -37 -6 -27 16 13 38 59 31 65 -2 2 -13 -15 -25 -38z"/>
    <path
      d="M1033 1053 c9 -2 15 -8 13 -11 -2 -4 2 -13 10 -20 17 -15 18 -8 4 19 -6 10 -18 18 -28 18 -16 -1 -15 -2 1 -6z"/>
    <path d="M930 1020 c0 -5 5 -10 11 -10 5 0 7 5 4 10 -3 6 -8 10 -11 10 -2 0 -4 -4 -4 -10z"/>
    <path d="M1080 1000 c0 -5 5 -10 11 -10 5 0 7 5 4 10 -3 6 -8 10 -11 10 -2 0 -4 -4 -4 -10z"/>
    <path d="M467 983 c-12 -11 -8 -23 8 -23 8 0 15 7 15 15 0 16 -12 20 -23 8z"/>
    <path d="M870 970 c0 -7 3 -10 7 -7 3 4 3 10 0 14 -4 3 -7 0 -7 -7z"/>
    <path d="M1030 960 c-12 -8 -9 -10 12 -10 15 0 30 5 33 10 8 13 -25 13 -45 0z"/>
    <path d="M875 941 c-3 -5 -1 -12 4 -15 13 -8 42 4 35 15 -7 12 -31 12 -39 0z"/>
    <path d="M800 908 c-11 -18 -19 -47 -18 -65 l2 -31 31 26 c41 35 58 71 44 89 -18 21 -38 15 -59 -19z"/>
    <path d="M971 931 c-7 -5 -9 -11 -5 -14 5 -3 15 1 22 9 14 16 5 18 -17 5z"/>
    <path d="M1067 924 c6 -17 63 -19 63 -1 0 7 -15 13 -34 14 -26 1 -33 -2 -29 -13z"/>
    <path d="M1151 924 c0 -11 3 -14 6 -6 3 7 2 16 -1 19 -3 4 -6 -2 -5 -13z"/>
    <path d="M935 920 c-3 -5 -1 -10 4 -10 6 0 11 5 11 10 0 6 -2 10 -4 10 -3 0 -8 -4 -11 -10z"/>
    <path d="M1008 913 c6 -2 18 -2 25 0 6 3 1 5 -13 5 -14 0 -19 -2 -12 -5z"/>
    <path
      d="M701 891 c-8 -5 -10 -18 -6 -34 7 -25 -12 -87 -26 -87 -3 0 -14 8 -23 19 -25 27 -123 37 -147 15 -18 -16 -19 -16 -20 2 0 11 -3 14 -6 6 -3 -7 1 -19 7 -28 7 -8 11 -15 9 -17 -2 -1 -13 -7 -24 -13 -17 -10 -20 -21 -19 -83 1 -39 4 -75 8 -78 4 -4 24 11 44 34 20 22 49 48 64 58 15 9 25 21 22 26 -10 17 27 22 68 9 33 -11 41 -11 48 -1 6 11 12 11 30 -2 12 -8 30 -13 41 -10 22 6 20 22 -14 113 -12 30 -20 58 -19 62 2 10 -24 17 -37 9z m16 -123 c-3 -8 -6 -5 -6 6 -1 11 2 17 5 13 3 -3 4 -12 1 -19z"/>
    <path d="M633 863 c-17 -6 -16 -20 2 -27 9 -3 19 3 25 14 11 21 1 25 -27 13z"/>
    <path d="M1100 700 c0 -7 3 -10 7 -7 3 4 3 10 0 14 -4 3 -7 0 -7 -7z"/>
    <path
      d="M925 678 c-10 -6 -43 -11 -72 -10 -29 1 -53 -3 -53 -8 0 -29 -175 -130 -225 -130 -22 0 -24 -3 -15 -19 5 -11 10 -31 10 -44 0 -16 9 -28 28 -38 15 -7 30 -15 34 -17 3 -2 9 6 13 17 3 12 33 32 73 51 74 34 123 35 142 1 17 -32 46 -31 84 3 45 42 54 78 30 125 -10 20 -21 46 -24 58 -4 18 -8 20 -25 11z"/>
    <path d="M231 614 c0 -11 3 -14 6 -6 3 7 2 16 -1 19 -3 4 -6 -2 -5 -13z"/>
    <path d="M1183 583 c4 -3 10 -3 14 0 3 4 0 7 -7 7 -7 0 -10 -3 -7 -7z"/>
    <path d="M18 363 c6 -2 18 -2 25 0 6 3 1 5 -13 5 -14 0 -19 -2 -12 -5z"/>
    <path d="M60 339 c0 -5 5 -7 10 -4 6 3 10 8 10 11 0 2 -4 4 -10 4 -5 0 -10 -5 -10 -11z"/>
    <path d="M143 315 c-3 -9 -3 -18 -1 -20 6 -7 58 18 58 28 0 14 -51 7 -57 -8z"/>
    <path d="M173 282 c-34 -5 -28 -22 7 -22 17 0 30 4 30 9 0 14 -11 18 -37 13z"/>
    <path
      d="M20 250 c0 -5 9 -10 21 -10 12 0 19 -5 16 -12 -2 -7 -11 -12 -21 -10 -9 2 -16 -2 -16 -8 0 -5 3 -10 8 -10 4 0 17 -3 30 -6 20 -6 22 -3 22 30 0 33 -2 36 -30 36 -16 0 -30 -4 -30 -10z"/>
    <path d="M280 250 c0 -5 5 -10 11 -10 5 0 7 5 4 10 -3 6 -8 10 -11 10 -2 0 -4 -4 -4 -10z"/>
    <path d="M280 210 c0 -7 3 -10 7 -7 3 4 3 10 0 14 -4 3 -7 0 -7 -7z"/>
    <path d="M163 180 c-27 -11 -33 -60 -7 -60 22 0 44 25 44 49 0 23 -4 24 -37 11z"/>
    <path
      d="M37 123 c-22 -4 -27 -9 -27 -34 0 -26 3 -29 30 -29 29 0 30 2 28 35 -1 19 -2 34 -3 34 0 -1 -12 -4 -28 -6z"/>
    <path d="M280 88 c0 -18 4 -28 8 -22 4 7 16 13 27 15 11 3 21 12 23 22 3 13 -3 17 -27 17 -28 0 -31 -3 -31 -32z"/>
    <path d="M461 34 c0 -11 3 -14 6 -6 3 7 2 16 -1 19 -3 4 -6 -2 -5 -13z"/>
    <path d="M758 43 c7 -3 16 -2 19 1 4 3 -2 6 -13 5 -11 0 -14 -3 -6 -6z"/>
    <path d="M930 40 c0 -10 40 -40 52 -40 17 0 6 16 -22 32 -17 9 -30 13 -30 8z"/>
    <path d="M140 30 c0 -12 27 -12 55 0 16 7 13 9 -17 9 -21 1 -38 -3 -38 -9z"/>
    <path d="M1103 26 c-29 -5 -53 -13 -53 -18 0 -4 27 -8 60 -8 46 0 60 3 60 14 0 21 -9 23 -67 12z"/>
    <path d="M170 10 c-24 -8 -23 -8 8 -9 17 -1 32 4 32 9 0 11 -5 11 -40 0z"/>
    <path d="M625 10 c-38 -7 -38 -7 18 -9 32 0 57 3 57 9 0 11 -14 11 -75 0z"/>
    <path d="M780 10 c-13 -8 -12 -10 3 -10 9 0 17 5 17 10 0 12 -1 12 -20 0z"/>
    <path d="M870 10 c0 -5 5 -10 11 -10 5 0 7 5 4 10 -3 6 -8 10 -11 10 -2 0 -4 -4 -4 -10z"/>
    <path d="M343 3 c4 -3 10 -3 14 0 3 4 0 7 -7 7 -7 0 -10 -3 -7 -7z"/>
    <path d="M493 3 c9 -2 23 -2 30 0 6 3 -1 5 -18 5 -16 0 -22 -2 -12 -5z"/>
  </g>
  <g id="layer105" fill="#d2b29b" stroke="none">
    <path
      d="M0 1835 l0 -445 50 0 c44 0 51 3 64 28 29 52 112 132 139 132 16 0 41 14 64 36 31 30 39 33 41 19 2 -10 -1 -21 -8 -25 -9 -6 -9 -13 -2 -26 10 -18 11 -17 20 6 23 60 23 107 2 189 -20 81 -20 82 -2 144 11 34 25 95 33 136 7 41 14 70 16 64 5 -13 -23 -174 -39 -230 -10 -37 -9 -50 17 -130 35 -105 39 -111 60 -89 32 31 154 18 244 -27 49 -24 62 -45 38 -59 -10 -5 -17 -16 -17 -23 0 -8 -8 -15 -17 -15 -14 0 -13 4 6 24 l23 24 -25 17 c-14 8 -29 15 -33 13 -5 -1 -22 1 -39 5 -16 3 -59 3 -95 -1 -58 -6 -65 -9 -62 -27 5 -29 14 -35 60 -39 53 -4 70 -19 78 -65 11 -61 19 -67 38 -27 11 23 24 36 37 36 17 0 19 -5 14 -57 -9 -88 -14 -129 -21 -150 -4 -12 2 -9 20 10 31 33 33 27 7 -17 -17 -28 -36 -106 -26 -106 11 0 126 60 153 79 17 11 39 24 49 28 11 5 59 31 107 58 82 47 89 54 115 110 16 33 34 81 42 107 11 39 17 47 31 42 16 -5 18 1 18 50 0 30 -4 57 -9 60 -5 4 -5 22 0 43 5 21 9 152 9 291 l0 252 -129 0 c-140 0 -147 -3 -135 -58 8 -43 28 -107 34 -112 3 -3 13 -20 22 -38 16 -31 16 -32 -2 -32 -29 0 -57 33 -71 82 -6 23 -20 56 -32 72 -12 16 -16 26 -9 22 11 -7 32 29 32 55 0 5 -100 9 -245 9 l-244 0 -4 -67 -3 -68 -2 68 -2 67 -205 0 -205 0 0 -445z m1060 55 c0 -16 -4 -30 -10 -30 -11 0 -14 43 -3 53 11 12 13 8 13 -23z m15 -61 c-8 -12 -35 -12 -35 0 0 11 22 20 33 14 4 -2 5 -9 2 -14z m-234 -314 c24 -13 28 -19 19 -35 -24 -44 -59 -35 -57 16 1 19 3 34 5 34 2 0 16 -7 33 -15z m-84 -52 c-4 -3 -7 0 -7 7 0 7 3 10 7 7 3 -4 3 -10 0 -14z"/>
    <path
      d="M300 1481 c-54 -8 -70 -17 -70 -39 0 -9 -11 -35 -25 -57 -13 -22 -25 -43 -25 -48 0 -4 41 25 90 65 80 64 106 91 83 87 -5 -1 -28 -5 -53 -8z"/>
    <path
      d="M0 1183 c1 -144 3 -165 14 -150 8 10 19 48 26 85 13 71 34 122 50 122 16 0 12 -17 -5 -24 -10 -4 -15 -20 -15 -53 0 -35 3 -44 10 -33 7 11 10 5 12 -25 1 -22 1 -50 0 -63 0 -12 3 -20 9 -17 5 4 9 13 9 21 0 8 16 71 36 140 19 70 33 129 30 132 -4 3 -6 0 -6 -6 0 -19 -34 -14 -92 13 -29 14 -59 25 -65 25 -10 0 -13 -40 -13 -167z"/>
    <path d="M3 963 c4 -3 10 -3 14 0 3 4 0 7 -7 7 -7 0 -10 -3 -7 -7z"/>
    <path d="M763 563 c4 -3 10 -3 14 0 3 4 0 7 -7 7 -7 0 -10 -3 -7 -7z"/>
    <path d="M950 20 c0 -7 24 -20 36 -20 13 0 1 19 -16 23 -11 3 -20 2 -20 -3z"/>
    <path d="M1135 20 c-3 -5 -18 -10 -32 -10 -15 0 -24 -3 -20 -6 9 -9 87 6 87 17 0 12 -27 12 -35 -1z"/>
    <path d="M1050 9 c0 -5 5 -7 10 -4 6 3 10 8 10 11 0 2 -4 4 -10 4 -5 0 -10 -5 -10 -11z"/>
    <path d="M493 3 c4 -3 10 -3 14 0 3 4 0 7 -7 7 -7 0 -10 -3 -7 -7z"/>
    <path d="M663 3 c9 -2 23 -2 30 0 6 3 -1 5 -18 5 -16 0 -22 -2 -12 -5z"/>
    <path d="M778 3 c7 -3 16 -2 19 1 4 3 -2 6 -13 5 -11 0 -14 -3 -6 -6z"/>
  </g>
  <g id="layer106" fill="#daafa0" stroke="none">
    <path
      d="M75 2259 c-81 -43 -75 -4 -75 -456 0 -389 1 -403 19 -403 12 0 33 21 57 57 32 49 39 54 49 40 18 -25 31 -21 60 17 18 24 39 37 71 45 57 15 140 91 129 118 -4 10 -14 50 -22 88 -14 63 -14 75 1 120 44 139 60 314 34 370 l-11 25 -136 0 c-119 0 -141 -3 -176 -21z m325 -45 c0 -14 -4 -22 -10 -19 -5 3 -18 2 -27 -3 -10 -5 -24 -7 -30 -5 -17 6 9 33 31 33 8 0 18 5 21 10 10 16 15 11 15 -16z m-63 -321 c-4 -3 -7 0 -7 7 0 7 3 10 7 7 3 -4 3 -10 0 -14z"/>
    <path
      d="M427 2253 c-3 -16 -6 -66 -6 -112 -1 -89 -22 -225 -43 -278 -11 -28 -8 -43 22 -133 27 -82 36 -99 45 -87 6 9 23 19 38 22 15 4 31 13 35 20 4 7 21 14 39 17 18 2 29 0 26 -4 -5 -9 24 -37 39 -38 3 0 4 10 0 23 -5 19 -1 17 22 -10 15 -18 38 -33 54 -35 15 -2 25 -7 22 -11 -3 -5 3 -13 12 -18 22 -12 48 -66 48 -99 0 -30 -43 -134 -59 -145 -6 -3 -11 -13 -11 -22 0 -24 28 3 47 46 13 29 17 32 21 17 2 -10 -11 -49 -29 -85 -25 -48 -33 -76 -31 -103 2 -21 7 -38 11 -38 4 0 34 16 67 36 32 21 76 45 97 56 20 10 37 21 37 24 0 3 -4 2 -10 -1 -5 -3 -10 0 -10 8 0 8 7 17 15 21 8 3 15 13 15 22 0 10 5 14 15 10 8 -3 15 0 15 7 0 8 4 6 10 -3 8 -13 10 -13 10 2 0 23 -21 68 -32 68 -4 0 -8 5 -8 12 0 9 3 9 12 0 7 -7 34 -12 61 -12 41 0 48 2 38 14 -10 11 -6 20 16 40 15 14 24 26 20 26 -4 0 -3 9 3 21 9 16 8 26 -4 43 -13 21 -13 25 1 38 13 14 13 19 -1 47 -9 17 -23 31 -32 31 -24 0 -30 37 -28 169 1 69 0 131 -3 138 -3 8 -20 21 -37 30 -17 9 -47 33 -66 53 -19 21 -57 62 -85 91 -27 30 -57 55 -65 55 -8 1 -20 2 -27 3 -6 1 -13 11 -15 24 -2 18 -10 23 -43 25 l-40 3 55 -56 c30 -30 69 -61 87 -67 39 -14 42 -23 11 -32 -37 -10 -49 -7 -46 11 2 10 -9 24 -27 34 -25 15 -38 16 -84 7 -30 -5 -68 -7 -85 -4 -30 6 -31 7 -28 56 l4 50 -55 0 c-53 0 -56 -1 -60 -27z m409 -734 c38 -23 39 -26 20 -52 -10 -12 -21 -16 -37 -12 -20 5 -24 12 -24 45 0 22 2 40 4 40 2 0 19 -9 37 -21z"/>
    <path
      d="M780 2269 c0 -7 9 -9 22 -6 12 4 29 0 38 -7 20 -18 60 -30 60 -17 0 5 3 16 6 25 5 14 -4 16 -60 16 -42 0 -66 -4 -66 -11z"/>
    <path
      d="M940 2247 c0 -58 9 -74 36 -69 13 2 24 12 25 21 0 10 2 11 6 3 2 -6 9 -9 14 -6 16 9 39 -16 39 -43 0 -24 -20 -53 -37 -53 -4 0 -14 -4 -21 -8 -9 -6 13 -35 78 -102 50 -51 93 -90 96 -87 10 9 -6 46 -29 68 -18 16 -19 21 -7 29 12 7 12 12 0 37 -8 15 -16 31 -18 36 -2 4 15 5 37 1 l41 -7 0 107 0 106 -130 -1 -130 0 0 -32z m67 -4 c-4 -3 -10 -3 -14 0 -3 4 0 7 7 7 7 0 10 -3 7 -7z m-27 -12 c0 -6 -4 -13 -10 -16 -5 -3 -10 1 -10 9 0 9 5 16 10 16 6 0 10 -4 10 -9z m113 -26 c-3 -9 -8 -14 -10 -11 -3 3 -2 9 2 15 9 16 15 13 8 -4z m-13 -95 c0 -5 -5 -10 -11 -10 -5 0 -7 5 -4 10 3 6 8 10 11 10 2 0 4 -4 4 -10z m35 -100 c3 -5 1 -10 -4 -10 -6 0 -11 5 -11 10 0 6 2 10 4 10 3 0 8 -4 11 -10z"/>
    <path
      d="M530 1597 c-53 -8 -60 -12 -40 -18 20 -5 21 -7 6 -8 -15 -1 -17 -4 -8 -13 9 -9 17 -9 34 -1 32 16 78 25 78 16 0 -5 -4 -14 -9 -22 -6 -10 -3 -23 11 -41 11 -15 23 -43 27 -61 l7 -34 22 44 c12 25 22 55 22 67 0 12 7 25 16 28 25 9 11 30 -27 39 -62 15 -73 15 -139 4z"/>
    <path d="M743 1533 c-15 -6 -17 -39 -3 -48 6 -3 15 6 20 20 14 38 13 41 -17 28z"/>
    <path d="M710 1480 c0 -7 3 -10 7 -7 3 4 3 10 0 14 -4 3 -7 0 -7 -7z"/>
    <path d="M1120 1480 c0 -7 3 -10 7 -7 3 4 3 10 0 14 -4 3 -7 0 -7 -7z"/>
    <path
      d="M253 1470 c-13 -5 -23 -16 -23 -25 0 -9 -9 -34 -21 -56 -13 -26 -15 -38 -7 -33 12 7 131 97 153 116 12 11 -74 9 -102 -2z"/>
    <path d="M706 1423 c-6 -14 -5 -15 5 -6 7 7 10 15 7 18 -3 3 -9 -2 -12 -12z"/>
    <path d="M1 1233 l0 -118 20 55 c10 30 22 71 25 90 8 46 11 50 37 50 17 1 12 5 -18 20 -66 32 -65 33 -64 -97z"/>
    <path d="M972 1328 c-18 -11 -31 -22 -29 -25 5 -4 77 36 77 43 0 8 -15 2 -48 -18z"/>
    <path
      d="M148 1293 c-12 -3 -18 -19 -23 -61 -3 -31 -8 -77 -10 -101 -3 -25 -3 -43 -1 -40 6 6 58 200 54 203 -2 1 -11 1 -20 -1z"/>
    <path d="M1143 23 c4 -3 10 -3 14 0 3 4 0 7 -7 7 -7 0 -10 -3 -7 -7z"/>
    <path d="M953 13 c4 -3 10 -3 14 0 3 4 0 7 -7 7 -7 0 -10 -3 -7 -7z"/>
    <path d="M668 3 c6 -2 18 -2 25 0 6 3 1 5 -13 5 -14 0 -19 -2 -12 -5z"/>
    <path d="M1103 3 c4 -3 10 -3 14 0 3 4 0 7 -7 7 -7 0 -10 -3 -7 -7z"/>
  </g>

</svg>
